<svg width="16" height="16" viewBox="0 0 40 40" fill="none" xmlns="http://www.w3.org/2000/svg">
  <path fill-rule="evenodd" clip-rule="evenodd" d="M20 2C10.059 2 2 10.059 2 20C2 29.941 10.059 38 20 38C29.941 38 38 29.941 38 20C38 10.059 29.941 2 20 2Z M12 15C12 13.895 13.343 13 15 13C16.657 13 18 13.895 18 15C18 16.105 16.657 17 15 17C13.343 17 12 16.105 12 15Z M22 15C22 13.895 23.343 13 25 13C26.657 13 28 13.895 28 15C28 16.105 26.657 17 25 17C23.343 17 22 16.105 22 15Z M10 23C12 30 17 33 20 33C23 33 28 30 30 23H10Z" fill="#000000"/>
</svg>
